# xmcd
#
# Track frame offsets:
#	150
#	13907
#	28315
#	43489
#	57164
#	72559
#	87917
#	104574
#	117506
#	130736
#	146709
#	161356
#	176714
#	195522
#	210713
#	225389
#	239125
#	255456
#	267436
#	281593
#	296961
#	310847
#
# Disc length: 4309 seconds
#
# Revision: 0
# Processed by: cddbd v1.5.2PL0 Copyright (c) Steve Scherf et al.
# Submitted via: EasyCDDAExtractor 11.9.9.666
#
DISCID=5e10d316
DTITLE=Merle Haggard, Willie Nelson and Ray Price - Last Of The Breed cd 1
DYEAR=2007
DGENRE=Country
TTITLE0=My Life's Been A Pleasure
TTITLE1=My Mary
TTITLE2=Back To Earth
TTITLE3=Heartaches By The Number
TTITLE4=Mom And Dad's Waltz
TTITLE5=Some Other World
TTITLE6=Why Me
TTITLE7=Lost Highway
TTITLE8=I Love You A Thousand Ways
TTITLE9=Please Don't Leave Me Anymore Baby
TTITLE10=I Gotta Have My Baby Back
TTITLE11=Going Away Party
TTITLE12=If I Ever Get Lucky
TTITLE13=Sweet Memories
TTITLE14=Pick Me Up On Your Way Down
TTITLE15=I Love You Because
TTITLE16=Sweet Jesus
TTITLE17=Still Water Runs Deepest
TTITLE18=I Love You So Much It Hurts Me
TTITLE19=That Silver Haired Daddy Of Mine
TTITLE20=I'll Keep On Loving You
TTITLE21=Night Watch
EXTD=
EXTT0=
EXTT1=
EXTT2=
EXTT3=
EXTT4=
EXTT5=
EXTT6=
EXTT7=
EXTT8=
EXTT9=
EXTT10=
EXTT11=
EXTT12=
EXTT13=
EXTT14=
EXTT15=
EXTT16=
EXTT17=
EXTT18=
EXTT19=
EXTT20=
EXTT21=
PLAYORDER=
